<svg width="36" height="36" viewBox="0 0 36 36" fill="none" xmlns="http://www.w3.org/2000/svg">
<g clip-path="url(#clip0_1687_465)">
<path d="M32.8863 18.4381C32.8755 18.3176 32.8216 18.2053 32.735 18.1228C32.6483 18.0403 32.5349 17.9934 32.4165 17.9909C32.4165 17.9909 27.1614 17.8355 20.8759 17.7898V28.2291C20.8759 28.8493 20.1626 29.3872 19.6997 29.018C19.1639 28.5912 18.6239 28.0997 18.0833 27.5808C17.9554 27.4562 17.7854 27.3866 17.6087 27.3866C17.432 27.3866 17.262 27.4562 17.1341 27.5808C16.5934 28.0997 16.0535 28.5912 15.5177 29.018C15.0547 29.3872 14.3408 28.8493 14.3415 28.2291V17.7884C8.05598 17.8341 2.80088 17.9895 2.80088 17.9895C2.68248 17.9919 2.56911 18.0389 2.48245 18.1214C2.39578 18.2039 2.34189 18.3161 2.33109 18.4367C2.19059 20.0607 2.13663 21.6913 2.16945 23.3213C2.22447 26.3089 2.49961 28.4963 2.78094 30.098C3.26999 32.7495 5.61208 35.0466 8.16535 35.453C9.71505 35.7132 14.737 36.0212 17.6087 35.9944C20.4804 36.0212 25.5023 35.7132 27.0521 35.453C29.6053 35.0466 31.9474 32.7495 32.4365 30.098C32.7178 28.4963 32.9929 26.3089 33.0479 23.3213C33.0807 21.6918 33.0268 20.0616 32.8863 18.4381ZM33.5501 16.2851C33.6984 16.2935 33.847 16.2803 33.9917 16.2458C34.716 16.0629 35.2201 15.459 35.2174 14.6989C35.2082 13.9425 35.154 13.1873 35.0551 12.4376C34.9649 11.6729 34.8329 10.914 34.6596 10.1644C34.4436 9.27076 33.6278 8.49099 32.7508 8.32435C32.4887 8.27584 29.0461 7.9067 25.5044 7.72107C26.0067 7.24242 26.3914 6.64935 26.6273 5.99007C26.8631 5.3308 26.9434 4.62393 26.8616 3.92696C26.7798 3.22999 26.5382 2.56259 26.1566 1.97903C25.7749 1.39547 25.2639 0.912228 24.6651 0.568599C24.0663 0.22497 23.3966 0.0306558 22.7105 0.00145746C22.0244 -0.0277408 21.3412 0.109001 20.7165 0.400564C20.0919 0.692127 19.5433 1.13028 19.1155 1.67939C18.6877 2.2285 18.3928 2.87307 18.2546 3.56068L17.5943 7.35756L16.9394 3.58529L16.9346 3.55927C16.7974 2.87023 16.5028 2.22408 16.0749 1.67348C15.6471 1.12289 15.098 0.683417 14.4724 0.390889C13.8469 0.0983614 13.1626 -0.0389475 12.4753 -0.00984792C11.788 0.0192516 11.1171 0.213936 10.5174 0.558341C9.91767 0.902745 9.40602 1.38712 9.02415 1.97201C8.64229 2.55689 8.40101 3.22572 8.31998 3.92401C8.23895 4.62229 8.32047 5.33026 8.55788 5.99024C8.79529 6.65021 9.18189 7.2435 9.68616 7.72177C6.1541 7.9081 2.72797 8.27513 2.46384 8.32365C1.58478 8.49029 0.771068 9.27006 0.555087 10.1637C0.381766 10.9133 0.249722 11.6722 0.159579 12.4369C0.0615077 13.1871 0.00821618 13.9428 0 14.6996C0 15.4611 0.504874 16.0665 1.2333 16.2465C1.37189 16.2792 1.51421 16.2925 1.65632 16.2858C2.89443 16.2408 11.0591 15.9575 18.646 15.9575C26.1111 15.9603 32.442 16.2338 33.5501 16.2851ZM22.5323 1.98849C23.1303 1.98873 23.707 2.21558 24.1509 2.6252C24.5948 3.03481 24.8744 3.59811 24.9357 4.20621C24.9969 4.81431 24.8355 5.42404 24.4825 5.91753C24.1296 6.41101 23.6102 6.75323 23.0247 6.87802L19.547 7.51084L20.1661 3.95162C20.2815 3.39719 20.5793 2.89994 21.0099 2.54273C21.4404 2.18551 21.9777 1.9899 22.5323 1.98849ZM12.6563 1.98849C13.2105 1.98941 13.7478 2.18437 14.1786 2.54092C14.6093 2.89747 14.9076 3.39409 15.0238 3.9481L15.6429 7.50732L12.1644 6.87451C11.5826 6.7463 11.0675 6.40315 10.7178 5.91081C10.3682 5.41846 10.2085 4.81154 10.2694 4.20632C10.3303 3.6011 10.6076 3.04013 11.048 2.63089C11.4884 2.22165 12.0611 1.99291 12.6563 1.98849Z" fill="#34394C"/>
</g>
<defs>
<clipPath id="clip0_1687_465">
<rect width="35.2174" height="36" fill="white"/>
</clipPath>
</defs>
</svg>
