<svg width="36" height="36" viewBox="0 0 36 36" fill="none" xmlns="http://www.w3.org/2000/svg">
<path d="M32.5336 13.7578C31.7109 13.6945 30.8876 13.6367 30.0635 13.5844C29.9985 13.5803 29.9333 13.5896 29.8721 13.6117C29.811 13.6338 29.7553 13.6682 29.7086 13.7127C29.6619 13.7572 29.6252 13.8108 29.601 13.87C29.5767 13.9292 29.5654 13.9927 29.5678 14.0565C29.8057 20.6934 29.6503 27.3382 29.1023 33.9575C29.0967 34.0259 29.1068 34.0948 29.132 34.1588C29.1573 34.2229 29.1969 34.2806 29.2481 34.3276C29.2992 34.3746 29.3605 34.4098 29.4274 34.4304C29.4944 34.451 29.5652 34.4566 29.6346 34.4468C30.3916 34.3394 31.1482 34.2218 31.9043 34.0938C33.6192 33.7903 35.2315 32.0891 35.434 30.3901C35.9177 26.1372 36.0914 21.2994 35.955 17.1043C35.8973 15.4293 34.3343 13.9113 32.5336 13.7578ZM6.42657 14.0571C6.42895 13.9934 6.41766 13.9298 6.39342 13.8706C6.36919 13.8113 6.33254 13.7577 6.28584 13.7132C6.23914 13.6686 6.18343 13.6342 6.12229 13.612C6.06115 13.5898 5.99594 13.5804 5.93086 13.5844C5.10915 13.6371 4.28883 13.6949 3.46993 13.7578C1.66571 13.9113 0.102661 15.4293 0.0450048 17.1043C-0.0914015 21.3021 0.0822704 26.1372 0.56602 30.3901C0.76852 32.0891 2.38079 33.7903 4.09571 34.0938C4.8504 34.2208 5.60508 34.3383 6.35977 34.4461C6.42914 34.4556 6.49981 34.4497 6.56655 34.4289C6.63329 34.4081 6.6944 34.3729 6.74536 34.3258C6.79632 34.2788 6.83584 34.2211 6.86098 34.1572C6.88612 34.0932 6.89626 34.0245 6.89063 33.9561C6.34312 27.3375 6.18817 20.6933 6.42657 14.0571ZM22.1857 2.01219C22.0261 1.12997 21.2084 0.328943 20.307 0.173418C18.7781 -0.057806 17.2219 -0.057806 15.6931 0.173418C14.7923 0.329631 13.9739 1.12997 13.8143 2.01219C13.6928 2.75883 13.6347 3.51404 13.6406 4.27006C13.6359 5.02618 13.6951 5.78139 13.8178 6.52793C13.9774 7.40947 14.7959 8.2105 15.6966 8.36602C16.4581 8.48654 17.2286 8.54477 18 8.54013C18.7726 8.54497 19.5443 8.48673 20.307 8.36602C21.2084 8.2105 22.0261 7.40947 22.1857 6.52793C22.3084 5.78139 22.3676 5.02618 22.3629 4.27006C22.3677 3.51394 22.3084 2.75873 22.1857 2.01219ZM20.6719 4.58937V4.59419C20.6551 4.74895 20.5843 4.89332 20.4715 5.00296C20.3576 5.11297 20.2088 5.18167 20.0496 5.19771C19.9392 5.20872 19.3549 5.21698 18.983 5.22317C18.9766 5.57483 18.9675 6.14394 18.9556 6.25542C18.9385 6.41025 18.8675 6.55462 18.7545 6.66419C18.6405 6.77395 18.4917 6.8424 18.3326 6.85825H18.3284C18.229 6.86974 18.1289 6.87548 18.0288 6.87546C17.9086 6.8761 17.7884 6.87036 17.6688 6.85825H17.6646C17.5055 6.8424 17.3567 6.77395 17.2427 6.66419C17.1297 6.55462 17.0587 6.41025 17.0416 6.25542C17.0297 6.14187 17.0206 5.57345 17.0142 5.22317C16.6528 5.21767 16.0685 5.20872 15.9518 5.19702C15.7926 5.18098 15.6438 5.11228 15.5299 5.00227C15.4173 4.89247 15.3466 4.74818 15.3295 4.5935V4.58868C15.3182 4.49228 15.3126 4.39532 15.3127 4.29828C15.312 4.18177 15.3176 4.0653 15.3295 3.94938V3.94456C15.3467 3.79012 15.4175 3.64611 15.5299 3.53648C15.6438 3.42647 15.7926 3.35777 15.9518 3.34173C16.0685 3.33003 16.6549 3.32108 17.0156 3.31489C17.022 2.95429 17.0304 2.38518 17.0416 2.27783C17.0587 2.12299 17.1297 1.97863 17.2427 1.86906C17.3566 1.75905 17.5054 1.69035 17.6646 1.67431H17.6688C17.7884 1.66268 17.9087 1.65923 18.0288 1.66398C18.1286 1.65919 18.2285 1.66264 18.3277 1.67431H18.3326C18.4918 1.69035 18.6406 1.75905 18.7545 1.86906C18.8675 1.97863 18.9385 2.12299 18.9556 2.27783C18.9668 2.38518 18.9752 2.95429 18.9816 3.31627C19.3542 3.32177 19.9392 3.33072 20.0496 3.34173C20.2088 3.35777 20.3576 3.42647 20.4715 3.53648C20.5843 3.64612 20.6551 3.79049 20.6719 3.94525V3.95007C20.6842 4.06595 20.6879 4.18255 20.6831 4.29897C20.688 4.39591 20.6842 4.49307 20.6719 4.58937Z" fill="#FF8E1B"/>
<path d="M27.6046 9.5565C27.4717 7.42319 25.7125 5.46743 23.7304 5.30984L23.5961 5.29883C23.5675 5.77817 23.5133 6.25573 23.4337 6.72952V6.74191C23.1813 8.14164 21.9571 9.33767 20.5291 9.58472H20.5164C19.6845 9.71701 18.8428 9.78192 17.9999 9.77878C17.1583 9.78293 16.3178 9.71917 15.487 9.58816H15.4743C14.0434 9.34111 12.8221 8.14301 12.5697 6.74535V6.73296C12.4888 6.25809 12.4334 5.77939 12.4038 5.29883L12.2631 5.30846C10.2817 5.46605 8.52251 7.42251 8.38892 9.55513C7.93769 17.6486 8.00344 25.7619 8.58579 33.8473C8.60314 34.0995 8.71043 34.3377 8.88893 34.5203C9.06744 34.703 9.30581 34.8184 9.56243 34.8466C11.2288 35.0301 12.8967 35.1592 14.5659 35.234C14.5567 33.5969 14.5715 31.0259 14.6306 30.3762C14.6778 29.8147 14.9252 29.2873 15.3296 28.8862C15.7339 28.4852 16.2695 28.236 16.8426 28.1824H16.8602C17.2908 28.1415 17.7234 28.1236 18.156 28.1287C18.5166 28.1248 18.877 28.1427 19.2353 28.1824H19.2529C19.826 28.236 20.3616 28.4852 20.7659 28.8862C21.1703 29.2873 21.4177 29.8147 21.4649 30.3762C21.524 31.0252 21.5388 33.592 21.5296 35.2299C23.1651 35.1551 24.7999 35.0276 26.4339 34.8473C26.6897 34.8188 26.9272 34.7037 27.1053 34.5218C27.2835 34.3399 27.3909 34.1028 27.4092 33.8515C27.9907 25.765 28.056 17.6509 27.6046 9.5565ZM16.8468 22.1499C16.7965 22.3821 16.6784 22.595 16.5069 22.7628C16.3355 22.9306 16.1179 23.0462 15.8807 23.0955C15.0946 23.2147 14.2945 23.2147 13.5084 23.0955C13.2712 23.0462 13.0536 22.9306 12.8822 22.7628C12.7107 22.595 12.5926 22.3821 12.5423 22.1499C12.4204 21.3806 12.4204 20.5974 12.5423 19.8281C12.5926 19.5959 12.7107 19.383 12.8822 19.2152C13.0536 19.0473 13.2712 18.9318 13.5084 18.8825C14.2945 18.7632 15.0946 18.7632 15.8807 18.8825C16.1179 18.9318 16.3355 19.0473 16.5069 19.2152C16.6784 19.383 16.7965 19.5959 16.8468 19.8281C16.9687 20.5974 16.9687 21.3806 16.8468 22.1499ZM16.8468 14.9242C16.7963 15.1562 16.6782 15.369 16.5068 15.5367C16.3353 15.7044 16.1178 15.8198 15.8807 15.869C15.0946 15.9883 14.2945 15.9883 13.5084 15.869C13.2712 15.8198 13.0538 15.7044 12.8823 15.5367C12.7109 15.369 12.5927 15.1562 12.5423 14.9242C12.4204 14.1546 12.4204 13.3712 12.5423 12.6016C12.5926 12.3695 12.7107 12.1566 12.8822 11.9887C13.0536 11.8209 13.2712 11.7054 13.5084 11.6561C14.2945 11.5368 15.0946 11.5368 15.8807 11.6561C16.1167 11.7049 16.3333 11.8193 16.5045 11.9855C16.6758 12.1518 16.7944 12.3628 16.8461 12.5934C16.968 13.363 16.968 14.1463 16.8461 14.9159L16.8468 14.9242ZM23.5532 22.1499C23.5028 22.3821 23.3847 22.5949 23.2132 22.7627C23.0418 22.9305 22.8243 23.0461 22.5871 23.0955C21.8008 23.2147 21.0004 23.2147 20.2141 23.0955C19.9769 23.0461 19.7595 22.9306 19.5882 22.7627C19.4168 22.5949 19.2989 22.382 19.2487 22.1499C19.1268 21.3806 19.1268 20.5974 19.2487 19.8281C19.2989 19.5959 19.4168 19.3831 19.5882 19.2152C19.7595 19.0474 19.9769 18.9318 20.2141 18.8825C21.0004 18.7632 21.8008 18.7632 22.5871 18.8825C22.8242 18.9314 23.0417 19.0465 23.2134 19.2138C23.3851 19.3811 23.5036 19.5935 23.5546 19.8253C23.6765 20.5947 23.6765 21.3778 23.5546 22.1472L23.5532 22.1499ZM23.5532 14.9242C23.5026 15.1562 23.3844 15.3688 23.213 15.5365C23.0415 15.7042 22.8242 15.8197 22.5871 15.869C21.8008 15.9883 21.0004 15.9883 20.2141 15.869C19.977 15.8198 19.7597 15.7043 19.5883 15.5366C19.417 15.3689 19.299 15.1562 19.2487 14.9242C19.1268 14.1546 19.1268 13.3712 19.2487 12.6016C19.2989 12.3695 19.4168 12.1566 19.5882 11.9888C19.7595 11.821 19.9769 11.7054 20.2141 11.6561C21.0004 11.5368 21.8008 11.5368 22.5871 11.6561C22.8235 11.7046 23.0405 11.8188 23.2121 11.9851C23.3837 12.1514 23.5026 12.3626 23.5546 12.5934C23.6765 13.363 23.6765 14.1463 23.5546 14.9159L23.5532 14.9242Z" fill="#FF8E1B"/>
</svg>
