<svg xmlns="http://www.w3.org/2000/svg" viewBox="0 0 24 24"><path d="M19.14 12.94a7.6 7.6 0 0 0 .05-.94 7.6 7.6 0 0 0-.05-.94l2.03-1.58a.5.5 0 0 0 .12-.64l-1.92-3.32a.5.5 0 0 0-.6-.22l-2.39.96a7.3 7.3 0 0 0-1.63-.94l-.36-2.54A.5.5 0 0 0 13.9 1h-3.8a.5.5 0 0 0-.49.42l-.36 2.54c-.58.23-1.12.54-1.63.94l-2.39-.96a.5.5 0 0 0-.6.22L2.71 7.48a.5.5 0 0 0 .12.64l2.03 1.58c-.03.31-.05.62-.05.94s.02.63.05.94L2.83 14.52a.5.5 0 0 0-.12.64l1.92 3.32a.5.5 0 0 0 .6.22l2.39-.96c.51.4 1.05.71 1.63.94l.36 2.54a.5.5 0 0 0 .49.42h3.8a.5.5 0 0 0 .49-.42l.36-2.54c.58-.23 1.12-.54 1.63-.94l2.39.96a.5.5 0 0 0 .6-.22l1.92-3.32a.5.5 0 0 0-.12-.64l-2.03-1.58ZM12 15.5A3.5 3.5 0 1 1 12 8a3.5 3.5 0 0 1 0 7.5Z"/></svg>