<svg width="36" height="36" viewBox="0 0 36 36" fill="none" xmlns="http://www.w3.org/2000/svg">
<g clip-path="url(#clip0_1687_474)">
<path d="M33.7992 13.1483C31.2265 12.7447 29.4173 10.3639 29.7049 7.84041C29.7439 7.49853 29.8215 7.16217 29.9362 6.83776C30.2343 5.98135 29.9285 4.99205 29.1923 4.3719C27.6365 3.02916 25.8725 1.94862 23.9695 1.17268C23.5545 0.997726 23.0929 0.96614 22.6579 1.08291C22.2229 1.19969 21.8393 1.45816 21.5676 1.81744C20.0615 3.83049 17.1597 4.18346 15.2001 2.61197C14.912 2.3803 14.654 2.11337 14.4323 1.81744C14.1607 1.45816 13.777 1.19969 13.342 1.08291C12.907 0.96614 12.4455 0.997726 12.0304 1.17268C10.2751 1.88714 8.63728 2.86155 7.17185 4.06322C6.39841 4.69041 6.07778 5.71838 6.39138 6.60361C7.26817 8.92885 6.08411 11.6556 3.67872 12.6505C3.25015 12.8293 2.79811 12.9456 2.33645 12.9957C1.36755 13.116 0.563876 13.8324 0.367704 14.7571C-0.0732353 16.712 -0.112704 18.7362 0.251689 20.7069C0.421845 21.6617 1.23606 22.4113 2.2345 22.535C4.80794 22.8078 6.72185 25.0831 6.55731 27.6151C6.52551 28.1238 6.40659 28.6232 6.20575 29.0917C5.82536 29.9713 6.12067 31.0379 6.90888 31.6862C8.45424 33.0056 10.2009 34.069 12.0825 34.8362C12.3161 34.9258 12.563 34.9762 12.813 34.9853C13.1519 34.9919 13.4869 34.9127 13.787 34.7551C14.0871 34.5975 14.3425 34.3666 14.5293 34.0838C14.9299 33.4822 15.4705 32.9868 16.1047 32.6401C16.7389 32.2934 17.4478 32.1058 18.1705 32.0934C18.8932 32.081 19.6081 32.2442 20.2538 32.569C20.8995 32.8938 21.4568 33.3704 21.8777 33.958C22.1481 34.3423 22.5441 34.6202 22.9975 34.7437C23.4509 34.8672 23.9332 34.8286 24.3611 34.6344C26.0806 33.8718 27.6801 32.8633 29.1093 31.6405C29.8589 31.0077 30.164 29.9945 29.8427 29.1268C28.9392 26.8114 30.0937 24.0742 32.4843 23.0567C32.8884 22.8829 33.3142 22.7647 33.75 22.7052C34.7076 22.5582 35.4846 21.8319 35.6618 20.9129C35.8696 19.9525 35.9829 18.974 36 17.9914C35.9997 16.9545 35.8911 15.9204 35.6758 14.9061C35.4958 14.0068 34.7358 13.2974 33.7992 13.1483ZM23.9997 17.9914C23.9997 21.2849 21.2913 23.9884 18 23.9912C14.7086 23.994 12.003 21.2849 12.0002 17.9914C11.9974 14.698 14.7086 11.9938 18 11.991C21.2913 11.9881 23.9969 14.6952 23.9997 17.9914Z" fill="#34394C"/>
</g>
<defs>
<clipPath id="clip0_1687_474">
<rect width="36" height="36" fill="white"/>
</clipPath>
</defs>
</svg>
