<svg width="37" height="36" viewBox="0 0 37 36" fill="none" xmlns="http://www.w3.org/2000/svg">
<g clip-path="url(#clip0_1687_470)">
<path d="M36.1438 13.9802C35.6694 11.8849 33.9495 9.92672 31.9089 8.91281C31.9089 8.81719 31.9125 8.73141 31.9089 8.6618C31.9132 8.26031 31.8586 7.40742 31.8141 7.18945C31.7706 7.00392 31.6766 6.83334 31.5421 6.69581C31.4076 6.55828 31.2376 6.45893 31.05 6.40828C30.7426 6.34686 30.4294 6.31694 30.1156 6.31898C29.8018 6.31659 29.4887 6.34652 29.1813 6.40828C28.9929 6.45827 28.822 6.55733 28.6867 6.69491C28.5513 6.83248 28.4567 7.00341 28.4129 7.18945C28.3856 7.32516 28.3533 7.70766 28.3346 8.07398C27.3628 7.98328 26.1431 7.89469 24.8601 7.81875C24.8734 7.29333 24.8542 6.76761 24.8026 6.24445C24.8026 6.24445 24.8026 6.23531 24.8026 6.2332C24.6143 4.44023 23.1919 2.75062 21.4188 2.20078C21.1413 2.10937 20.1761 1.82812 18.4187 1.82812C16.6614 1.82812 15.6946 2.10938 15.4237 2.20359C13.6462 2.75203 12.2231 4.44234 12.0333 6.23602C12.0336 6.23999 12.0336 6.24399 12.0333 6.24797C11.9832 6.76393 11.964 7.28231 11.9758 7.80047C10.7036 7.87781 9.48249 7.97062 8.5014 8.06555C8.49046 7.77337 8.46455 7.48191 8.42377 7.19227C8.37997 7.00622 8.28536 6.83529 8.15005 6.69772C8.01473 6.56014 7.84378 6.46108 7.65543 6.41109C7.34798 6.34969 7.03483 6.31977 6.72105 6.3218C6.40725 6.31939 6.09407 6.34932 5.78668 6.41109C5.59832 6.46108 5.42737 6.56014 5.29206 6.69772C5.15674 6.83529 5.06214 7.00622 5.01833 7.19227C4.97377 7.41023 4.91915 8.26313 4.92346 8.66461V8.89664C2.87502 9.90281 1.13349 11.8723 0.65624 13.9802C0.309084 15.6164 -0.0316035 17.8425 -0.0373535 20.8828C-0.0323223 23.9217 0.309084 26.1471 0.65624 27.784C1.26646 30.4784 3.93733 32.9477 6.69949 33.4716C8.3828 33.8006 14.9781 34.2077 18.0831 34.1747C21.1888 34.2084 28.4172 33.8013 30.1006 33.4716C32.8627 32.9477 35.5336 30.4784 36.1438 27.784C36.491 26.1471 36.8324 23.9217 36.8374 20.8828C36.8424 17.8439 36.491 15.6164 36.1438 13.9802ZM14.7502 6.50602C14.8314 5.76141 15.5063 4.9732 16.2596 4.7482C16.2841 4.74191 16.3081 4.73393 16.3315 4.7243C16.422 4.69688 17.1077 4.5007 18.4158 4.5007C19.724 4.5007 20.4075 4.69477 20.5002 4.72289C20.5252 4.73312 20.5509 4.74158 20.5771 4.7482C21.3296 4.97391 22.006 5.76492 22.0865 6.50602C22.1245 6.89649 22.1398 7.28876 22.1325 7.68094C20.5663 7.61555 19.1022 7.57898 18.0823 7.58953C17.1817 7.58039 15.9865 7.60781 14.7042 7.65984C14.6979 7.2747 14.7133 6.88951 14.7502 6.50602ZM25.3 21.7062V21.7188C25.2563 22.1182 25.0733 22.4906 24.7818 22.7735C24.4882 23.0562 24.1049 23.2325 23.6951 23.2734C23.4076 23.3023 21.8982 23.3248 20.9394 23.3438C20.9236 24.2508 20.8998 25.7203 20.8675 26.0156C20.8237 26.415 20.6407 26.7874 20.3493 27.0703C20.0554 27.3524 19.6721 27.5283 19.2625 27.5688H19.2503C18.9936 27.598 18.7354 27.6125 18.4769 27.6124C18.1668 27.6141 17.8568 27.5995 17.5483 27.5688H17.5361C17.1257 27.5273 16.742 27.3499 16.4486 27.0661C16.1571 26.7832 15.9741 26.4108 15.9304 26.0114C15.8995 25.7196 15.8758 24.2536 15.8585 23.3445C14.9241 23.329 13.4148 23.3065 13.1136 23.2741C12.7033 23.2326 12.3198 23.0555 12.0261 22.7721C11.7348 22.4892 11.5521 22.1167 11.5086 21.7174V21.7055C11.4789 21.4564 11.4638 21.206 11.4634 20.9552C11.4621 20.6544 11.4772 20.3538 11.5086 20.0545V20.0426C11.552 19.6432 11.7347 19.2707 12.0261 18.9879C12.3197 18.7044 12.7033 18.527 13.1136 18.4852C13.4155 18.4549 14.9256 18.4317 15.8607 18.4148C15.8765 17.4832 15.8995 16.0144 15.9326 15.7373C15.9766 15.3381 16.1595 14.9657 16.4508 14.6827C16.7446 14.4002 17.1278 14.224 17.5375 14.1827H17.5497C17.8582 14.1522 18.1685 14.1428 18.4784 14.1546C18.7365 14.1428 18.9952 14.1522 19.2517 14.1827H19.264C19.6742 14.2244 20.0578 14.4014 20.3514 14.6848C20.6427 14.9678 20.8256 15.3402 20.8696 15.7395C20.8991 16.0165 20.9221 17.4867 20.9379 18.4198C21.8996 18.4352 23.4104 18.457 23.6958 18.4859C24.1062 18.5274 24.4898 18.7048 24.7832 18.9886C25.0749 19.2714 25.2579 19.6439 25.3015 20.0433V20.0552C25.3327 20.3544 25.3423 20.6554 25.3302 20.9559C25.3419 21.2064 25.3318 21.4574 25.3 21.7062Z" fill="#34394C"/>
</g>
<defs>
<clipPath id="clip0_1687_470">
<rect width="36.8" height="36" fill="white"/>
</clipPath>
</defs>
</svg>
